HIERARCHY
ROOT Hips
{
	OFFSET -1.602300 6.242603 43.997101
	CHANNELS 6 Xposition Yposition Zposition Zrotation Xrotation Yrotation
	JOINT Chest
	{
		OFFSET -0.204900 1.598101 7.917301
		CHANNELS 6 Xposition Yposition Zposition Zrotation Xrotation Yrotation
		JOINT Chest2
		{
			OFFSET 0.000000 0.000000 3.404099
			CHANNELS 6 Xposition Yposition Zposition Zrotation Xrotation Yrotation
			JOINT Neck
			{
				OFFSET 0.000000 0.000000 7.928600
				CHANNELS 6 Xposition Yposition Zposition Zrotation Xrotation Yrotation
				JOINT Head
				{
					OFFSET 0.000000 0.000000 2.173897
					CHANNELS 6 Xposition Yposition Zposition Zrotation Xrotation Yrotation
					End Site
					{
						OFFSET 0.000000 0.000001 10.404503
					}
				}
			}
			JOINT LeftCollar
			{
				OFFSET 2.833800 -1.396299 4.843300
				CHANNELS 6 Xposition Yposition Zposition Zrotation Xrotation Yrotation
				JOINT LeftShoulder
				{
					OFFSET 4.363600 0.000000 0.000000
					CHANNELS 6 Xposition Yposition Zposition Zrotation Xrotation Yrotation
					JOINT LeftElbow
					{
						OFFSET 0.000000 -0.000001 -10.306900
						CHANNELS 6 Xposition Yposition Zposition Zrotation Xrotation Yrotation
						JOINT LeftWrist
						{
							OFFSET 0.000000 -0.000001 -12.404900
							CHANNELS 6 Xposition Yposition Zposition Zrotation Xrotation Yrotation
							End Site
							{
								OFFSET 0.000000 0.000000 -2.173901
							}
						}
					}
				}
			}
			JOINT RightCollar
			{
				OFFSET -2.354800 -1.897200 5.063099
				CHANNELS 6 Xposition Yposition Zposition Zrotation Xrotation Yrotation
				JOINT RightShoulder
				{
					OFFSET -4.375800 0.000000 0.000000
					CHANNELS 6 Xposition Yposition Zposition Zrotation Xrotation Yrotation
					JOINT RightElbow
					{
						OFFSET 0.000000 -0.000001 -10.005001
						CHANNELS 6 Xposition Yposition Zposition Zrotation Xrotation Yrotation
						JOINT RightWrist
						{
							OFFSET 0.000000 -0.000001 -13.174900
							CHANNELS 6 Xposition Yposition Zposition Zrotation Xrotation Yrotation
							End Site
							{
								OFFSET 0.000000 0.000000 -2.173901
							}
						}
					}
				}
			}
		}
	}
	JOINT LeftHip
	{
		OFFSET 2.240600 0.386800 -2.614101
		CHANNELS 6 Xposition Yposition Zposition Zrotation Xrotation Yrotation
		JOINT LeftKnee
		{
			OFFSET 0.000000 -0.000001 -18.592899
			CHANNELS 6 Xposition Yposition Zposition Zrotation Xrotation Yrotation
			JOINT LeftAnkle
			{
				OFFSET 0.000000 -0.000001 -18.765800
				CHANNELS 6 Xposition Yposition Zposition Zrotation Xrotation Yrotation
				End Site
				{
					OFFSET 0.000000 -8.655000 0.000000
				}
			}
		}
	}
	JOINT RightHip
	{
		OFFSET -2.014900 -0.220900 -2.615898
		CHANNELS 6 Xposition Yposition Zposition Zrotation Xrotation Yrotation
		JOINT RightKnee
		{
			OFFSET 0.000000 -0.000001 -18.633900
			CHANNELS 6 Xposition Yposition Zposition Zrotation Xrotation Yrotation
			JOINT RightAnkle
			{
				OFFSET 0.000000 -0.000001 -18.285101
				CHANNELS 6 Xposition Yposition Zposition Zrotation Xrotation Yrotation
				End Site
				{
					OFFSET 0.000000 -7.524500 0.000000
				}
			}
		}
	}
}
MOTION
Frames: 10
Frame Time: 0.041667
-6.993802 22.311504 10.484112 -39.133326 10.092807 -2.487054 -0.204900 1.598101 7.917309 -3.125012 -2.545888 8.757700 0.000003 0.000002 3.404101 -1.933276 -13.773707 -1.175970 -0.000002 -0.000001 7.928601 41.168627 11.864493 -24.680856 0.000002 0.000002 2.173917 4.434201 0.720012 7.342809 2.833805 -1.396300 4.843307 10.891295 3.790293 26.305242 4.363595 0.000001 0.000005 -9.716733 30.658189 -65.528992 -0.000001 0.000000 -10.306893 579.614497 -179.645641 539.208246 -0.000001 -0.000001 -12.404897 24.937801 356.048964 -365.896266 -2.354798 -1.897201 5.063106 -1.711953 0.572164 17.174820 -4.375792 0.000005 -0.000011 18.470652 -3.928675 139.929580 -0.000001 0.000001 -10.004995 -587.813074 -178.119695 -542.519194 0.000001 -0.000001 -13.174900 -267.051107 -181.854470 170.644627 2.240600 0.386802 -2.614101 109.444281 -46.293253 109.682279 -0.000001 0.000000 -18.592899 -7.342896 32.457370 6.770078 0.000003 -0.000000 -18.765797 -55.568370 31.291501 20.846036 -2.014899 -0.220890 -2.615893 -76.639886 -47.795649 -75.383418 -0.000001 0.000004 -18.633884 61.430715 -22.114676 -150.904028 -0.000003 -0.000006 -18.285088 -76.043652 32.215427 -153.781614
-6.951600 22.321703 10.475513 -39.093923 9.775868 -2.341175 -0.204899 1.598099 7.917305 -3.102159 -2.571697 8.591773 0.000002 -0.000004 3.404100 -1.916777 -13.747768 -1.187202 -0.000001 -0.000004 7.928600 40.875226 12.046590 -24.805213 0.000000 -0.000001 2.173905 4.346495 0.774607 7.206876 2.833805 -1.396304 4.843305 10.708883 3.847437 26.279672 4.363590 -0.000001 -0.000002 -9.965406 30.981854 -65.200665 0.000000 -0.000001 -10.306896 579.109774 -179.543079 539.363701 -0.000001 -0.000001 -12.404890 25.892441 356.179475 -366.252529 -2.354798 -1.897204 5.063105 -1.636449 0.635215 17.072650 -4.375794 0.000004 -0.000014 18.624171 -3.901822 140.111495 0.000001 0.000000 -10.004996 -588.274576 -178.134885 -542.512637 0.000002 -0.000000 -13.174886 -266.516741 -182.165161 171.405510 2.240600 0.386805 -2.614105 109.183490 -46.390293 109.374510 -0.000001 0.000001 -18.592901 -7.395752 32.503709 6.732240 -0.000000 0.000001 -18.765799 -55.612080 31.456020 21.390103 -2.014900 -0.220891 -2.615898 -76.403951 -47.843802 -74.986304 -0.000000 0.000004 -18.633884 61.312750 -22.017222 -150.924641 -0.000005 -0.000006 -18.285086 -75.916624 32.201941 -153.863303
-6.910699 22.329105 10.467907 -39.072712 9.461725 -2.207371 -0.204902 1.598102 7.917307 -3.045306 -2.585816 8.422299 -0.000000 -0.000001 3.404102 -1.919086 -13.742882 -1.185763 -0.000004 0.000001 7.928599 40.589205 12.229934 -24.903566 -0.000000 0.000001 2.173903 4.267608 0.804992 7.106423 2.833803 -1.396299 4.843304 10.465650 3.971652 26.272239 4.363592 0.000000 -0.000002 -10.138705 31.205891 -64.923550 0.000001 -0.000001 -10.306895 578.566419 -179.420545 539.534292 0.000000 -0.000001 -12.404896 26.772146 356.236248 -366.869869 -2.354797 -1.897200 5.063099 -1.537788 0.748961 16.886087 -4.375792 0.000000 -0.000008 18.850818 -3.956304 140.398596 0.000001 -0.000001 -10.004987 -588.488334 -178.137385 -542.509795 -0.000002 0.000003 -13.174891 -266.092750 -182.472124 172.200790 2.240597 0.386808 -2.614104 108.903985 -46.536691 109.054297 -0.000002 0.000002 -18.592897 -7.523450 32.486323 6.736767 0.000001 0.000001 -18.765795 -55.485171 31.655704 21.879997 -2.014901 -0.220896 -2.615899 -76.153898 -47.888362 -74.583521 0.000000 0.000006 -18.633884 61.203071 -21.929383 -150.949312 -0.000006 -0.000006 -18.285082 -75.795880 32.193147 -153.942383
-6.871100 22.335604 10.462112 -39.040764 9.144415 -2.087006 -0.204900 1.598100 7.917303 -3.021807 -2.595465 8.260929 -0.000001 0.000002 3.404104 -1.907421 -13.735173 -1.184122 -0.000002 -0.000001 7.928606 40.317958 12.398788 -25.005521 0.000001 0.000003 2.173895 4.165012 0.830453 7.002965 2.833805 -1.396297 4.843308 10.257267 4.069475 26.268535 4.363592 0.000000 0.000000 -10.317404 31.485560 -64.657993 -0.000000 0.000000 -10.306898 577.930009 -179.260405 539.734662 -0.000001 -0.000002 -12.404890 27.709683 356.320013 -367.539255 -2.354798 -1.897198 5.063108 -1.435853 0.864994 16.695844 -4.375796 0.000003 -0.000008 19.248955 -4.110772 140.715175 -0.000001 -0.000002 -10.004993 -588.398175 -178.152111 -542.489032 0.000001 -0.000000 -13.174894 -265.819652 -182.773799 173.056967 2.240597 0.386805 -2.614102 108.597310 -46.732407 108.726892 -0.000001 -0.000000 -18.592899 -7.559382 32.433205 6.721912 0.000005 -0.000000 -18.765799 -55.335160 31.931244 22.212397 -2.014901 -0.220894 -2.615900 -75.964961 -47.877256 -74.212382 -0.000000 0.000006 -18.633883 61.202313 -21.817984 -150.977561 -0.000003 -0.000006 -18.285086 -75.642692 32.184937 -154.044152
-6.831901 22.341404 10.457310 -39.051866 8.815964 -1.987247 -0.204898 1.598100 7.917305 -2.960658 -2.572756 8.126948 0.000001 -0.000001 3.404105 -1.892120 -13.727506 -1.183074 0.000000 -0.000001 7.928607 40.009155 12.561024 -25.050624 0.000001 0.000001 2.173906 4.097082 0.903403 6.886866 2.833805 -1.396299 4.843305 10.107623 4.098334 26.120523 4.363593 -0.000001 -0.000001 -10.585430 31.720829 -64.225819 0.000000 0.000001 -10.306894 576.993180 -179.093680 539.943939 -0.000001 -0.000002 -12.404896 28.826772 356.401757 -368.278145 -2.354796 -1.897201 5.063107 -1.340096 0.926498 16.610042 -4.375791 0.000001 -0.000011 19.713309 -4.296463 140.947647 0.000001 0.000000 -10.004983 -588.252501 -178.184554 -542.475808 -0.000000 -0.000002 -13.174894 -265.533439 -183.064465 173.912763 2.240601 0.386806 -2.614101 108.291037 -46.940608 108.356792 -0.000002 0.000003 -18.592901 -7.235603 32.337469 6.564056 -0.000001 0.000002 -18.765799 -55.484799 32.279836 22.707314 -2.014897 -0.220894 -2.615896 -75.735521 -47.845055 -73.819674 -0.000001 0.000002 -18.633888 61.212026 -21.726943 -151.027627 -0.000005 -0.000007 -18.285088 -75.514414 32.176881 -154.129284
-6.793100 22.344303 10.452606 -39.106542 8.475652 -1.942859 -0.204897 1.598099 7.917312 -2.827325 -2.541215 8.082750 -0.000002 0.000001 3.404104 -1.873049 -13.733683 -1.182213 -0.000001 0.000002 7.928602 39.675298 12.724345 -25.126878 0.000001 0.000001 2.173902 3.968650 0.893523 6.829031 2.833806 -1.396300 4.843310 9.842670 4.239388 26.017603 4.363587 -0.000001 -0.000000 -10.835542 31.932552 -63.860991 -0.000000 0.000001 -10.306893 576.006464 -178.898364 540.154418 -0.000002 -0.000001 -12.404893 30.118006 356.479075 -369.056212 -2.354796 -1.897201 5.063110 -3.066683 -0.121662 16.253415 -4.375793 0.000003 -0.000021 22.364194 -3.912497 141.228409 -0.000001 0.000001 -10.004995 -587.737450 -178.231956 -542.434827 -0.000000 0.000001 -13.174895 -265.482404 -183.320447 174.716307 2.240602 0.386800 -2.614101 107.965941 -47.018582 107.911422 -0.000000 0.000001 -18.592899 -6.882850 32.241450 6.391680 0.000003 -0.000000 -18.765797 -55.728743 32.720810 23.219472 -2.014898 -0.220895 -2.615898 -75.398438 -47.893307 -73.351799 0.000000 0.000004 -18.633884 61.152849 -21.666873 -151.087432 -0.000004 -0.000005 -18.285086 -75.418375 32.167483 -154.191903
-6.754100 22.345203 10.448311 -39.190498 8.128110 -1.936681 -0.204899 1.598100 7.917309 -2.665392 -2.509194 8.094872 0.000002 0.000002 3.404102 -1.844685 -13.743282 -1.181658 -0.000001 -0.000002 7.928604 39.354252 12.881024 -25.251841 0.000001 0.000001 2.173899 3.883181 0.920225 6.736201 2.833804 -1.396299 4.843310 9.566364 4.375088 25.906172 4.363596 -0.000001 -0.000001 -11.060557 32.157354 -63.497769 -0.000002 0.000000 -10.306894 574.789160 -178.653706 540.379432 -0.000002 -0.000002 -12.404894 31.687997 356.526804 -369.875726 -2.354800 -1.897196 5.063109 -2.916196 0.068371 16.013679 -4.375791 0.000004 -0.000005 23.075065 -4.282535 141.622128 -0.000001 0.000001 -10.004997 -587.035635 -178.295135 -542.376470 0.000001 0.000001 -13.174896 -265.416233 -183.548930 175.540124 2.240600 0.386806 -2.614102 107.637211 -46.988570 107.412880 -0.000001 0.000001 -18.592897 -6.542899 32.179402 6.210781 0.000002 0.000002 -18.765799 -56.069204 33.116445 23.706528 -2.014898 -0.220895 -2.615894 -74.961736 -48.010592 -72.807494 -0.000000 0.000000 -18.633884 61.001512 -21.650081 -151.159641 -0.000004 -0.000007 -18.285082 -75.365919 32.154540 -154.223267
-6.717300 22.347904 10.444408 -39.231548 7.780798 -1.914684 -0.204899 1.598104 7.917302 -2.547377 -2.481967 8.091431 0.000004 0.000004 3.404098 -1.799527 -13.743824 -1.180444 -0.000002 0.000004 7.928596 39.006285 13.051893 -25.376487 0.000000 -0.000001 2.173895 3.820962 0.966768 6.580092 2.833804 -1.396296 4.843307 9.311336 4.479276 25.774982 4.363591 -0.000001 -0.000002 -11.299062 32.420408 -63.120346 -0.000001 0.000000 -10.306895 573.374382 -178.340474 540.642422 -0.000001 -0.000002 -12.404889 33.467695 356.571720 -370.726986 -2.354799 -1.897198 5.063103 -2.798767 0.214264 15.793185 -4.375793 0.000002 -0.000011 23.809194 -4.586246 141.977558 -0.000001 0.000002 -10.004994 -586.496651 -178.372521 -542.322266 -0.000000 -0.000001 -13.174888 -265.286023 -183.743686 176.328970 2.240600 0.386804 -2.614104 107.292211 -46.993843 106.930737 -0.000001 0.000001 -18.592903 -6.174709 32.149082 6.024754 0.000004 0.000000 -18.765799 -56.457930 33.454898 24.121588 -2.014898 -0.220895 -2.615900 -74.552375 -48.089818 -72.257043 0.000000 0.000005 -18.633888 60.821591 -21.658733 -151.235128 -0.000005 -0.000007 -18.285086 -75.347088 32.140056 -154.230917
-6.682300 22.350706 10.439213 -39.716584 7.416241 -1.843670 -0.204901 1.598099 7.917309 -1.990201 -2.432346 8.103191 -0.000000 0.000003 3.404104 -1.757274 -13.734748 -1.178495 -0.000001 0.000001 7.928599 38.648475 13.228002 -25.485862 0.000002 -0.000002 2.173903 3.786928 1.009789 6.434687 2.833805 -1.396299 4.843307 9.059410 4.577402 25.582757 4.363595 0.000001 -0.000005 -11.540367 32.656900 -62.687592 -0.000001 -0.000000 -10.306890 571.889717 -177.969226 540.930983 -0.000000 -0.000001 -12.404895 35.264881 356.566037 -371.583492 -2.354799 -1.897200 5.063106 -2.683052 0.343800 15.595632 -4.375792 0.000003 -0.000010 24.313561 -4.707444 142.243498 -0.000001 0.000000 -10.004986 -586.358298 -178.423884 -542.268608 -0.000001 0.000000 -13.174898 -265.111498 -183.886615 177.078856 2.240597 0.386801 -2.614098 107.358764 -46.988403 106.402196 -0.000001 0.000002 -18.592899 -5.880475 32.154615 5.869426 0.000002 0.000001 -18.765800 -56.789444 33.740732 24.404597 -2.014902 -0.220894 -2.615891 -73.558159 -48.246715 -71.585246 -0.000001 0.000002 -18.633884 60.486448 -21.708498 -151.299810 -0.000005 -0.000007 -18.285084 -75.383015 32.121847 -154.199403
-6.648799 22.353804 10.433407 -39.706912 7.097289 -1.764764 -0.204899 1.598101 7.917313 -1.904053 -2.457512 8.032892 0.000001 0.000004 3.404105 -1.722052 -13.715101 -1.175340 -0.000002 -0.000001 7.928601 38.331168 13.401292 -25.650162 0.000001 -0.000001 2.173903 3.717877 1.049577 6.291048 2.833803 -1.396299 4.843305 8.770071 4.713388 25.448834 4.363590 -0.000003 0.000002 -11.713298 32.871395 -62.353808 0.000000 -0.000000 -10.306895 570.361230 -177.538227 541.252385 -0.000001 -0.000004 -12.404891 37.071634 356.558387 -372.353882 -2.354801 -1.897199 5.063106 -2.525367 0.526776 15.363686 -4.375790 0.000005 -0.000010 24.688450 -4.782871 142.528221 -0.000002 -0.000005 -10.004994 -586.206832 -178.444047 -542.210469 -0.000000 -0.000001 -13.174887 -265.150976 -183.991185 177.830764 2.240602 0.386807 -2.614102 107.031291 -47.003173 105.994106 -0.000002 0.000002 -18.592897 -5.664820 32.176943 5.748572 0.000005 0.000001 -18.765799 -57.122511 34.011709 24.616794 -2.014898 -0.220893 -2.615895 -73.139633 -48.360731 -71.046685 -0.000001 0.000001 -18.633881 60.181452 -21.727677 -151.354082 -0.000005 -0.000006 -18.285086 -75.386560 32.096425 -154.187709
